<svg xmlns="http://www.w3.org/2000/svg" width="32" height="32" viewBox="0 0 16 16"><g><g><g><path fill="#333" d="M15 13.5c0 .827-.673 1.5-1.5 1.5h-11c-.827 0-1.5-.673-1.5-1.5v-10C1 2.673 1.673 2 2.5 2v1h1V2h4v1h1V2h4v1h1V2c.827 0 1.5.673 1.5 1.5zM13.5 1V0h-1v1h-4V0h-1v1h-4V0h-1v1A2.503 2.503 0 0 0 0 3.5v10C0 14.878 1.122 16 2.5 16h11c1.378 0 2.5-1.122 2.5-2.5v-10C16 2.122 14.878 1 13.5 1z"/></g><g><path fill="#333" d="M3.5 6.25a.75.75 0 1 0 0-1.5.75.75 0 0 0 0 1.5z"/></g><g><path fill="#333" d="M6.5 6.25a.75.75 0 1 0 0-1.5.75.75 0 0 0 0 1.5z"/></g><g><path fill="#333" d="M9.5 6.25a.75.75 0 1 0 0-1.5.75.75 0 0 0 0 1.5z"/></g><g><path fill="#333" d="M12.5 6.25a.75.75 0 1 0 0-1.5.75.75 0 0 0 0 1.5z"/></g><g><path fill="#333" d="M3.5 9.25a.75.75 0 1 0 0-1.5.75.75 0 0 0 0 1.5z"/></g><g><path fill="#333" d="M6.5 9.25a.75.75 0 1 0 0-1.5.75.75 0 0 0 0 1.5z"/></g><g><path fill="#333" d="M9.5 9.25a.75.75 0 1 0 0-1.5.75.75 0 0 0 0 1.5z"/></g><g><path fill="#333" d="M12.5 9.25a.75.75 0 1 0 0-1.5.75.75 0 0 0 0 1.5z"/></g><g><path fill="#333" d="M3.5 12.25a.75.75 0 1 0 0-1.5.75.75 0 0 0 0 1.5z"/></g><g><path fill="#333" d="M6.5 12.25a.75.75 0 1 0 0-1.5.75.75 0 0 0 0 1.5z"/></g><g><path fill="#333" d="M9.5 12.25a.75.75 0 1 0 0-1.5.75.75 0 0 0 0 1.5z"/></g></g></g></svg>