<svg xmlns="http://www.w3.org/2000/svg" width="20" height="14" viewBox="0 0 20 14"><g><g><path fill="#3588c0" d="M6.624 6.195L.321 12.771A2.18 2.18 0 0 1 0 11.65V2.347c0-.455.146-.877.389-1.235zm12.164 7.425a2.598 2.598 0 0 1-1.316.358H2.496c-.485 0-.934-.134-1.316-.358l6.384-6.658L9.574 8.6a.65.65 0 0 0 .41.143.65.65 0 0 0 .41-.143l2.009-1.64zM1.308.313A2.596 2.596 0 0 1 2.495.02h14.976c.432 0 .833.111 1.19.293L9.983 7.39zm18.67 11.339c0 .408-.124.786-.321 1.119l-6.314-6.575 6.245-5.085c.243.358.39.78.39 1.235z"/></g></g></svg>