<svg xmlns="http://www.w3.org/2000/svg" width="21" height="18" viewBox="0 0 21 18"><g><g><path fill="#3588c0" d="M20.22 15.06c-.004-.863-.631-.883-1.381-1.172l-3.5-1.352a4.196 4.196 0 0 1-.18-.073v-.001c-.623-.272-1.172-.65-1.373-.916l-.008-.008-.002-.005-.035-.051-.008-.014-.001-.004-.008-.008c-.093-.136-.187-.196-.267-.17l-.005.002h-.002l-.005.003h-.003l-.005.004c-.094.048-.076-.004-.114-.105-.095-.246-.251-.716-.275-.785-.036-.129-.134.203-.112-.155l.04-.648.152-.159c.228-.251.244-.915.358-1.077.115-.163.344-.197.572-.951.229-.755.507-1.833.213-1.85-.072-.005-.154.04-.238.112.051-.277.16-.905.185-1.369.033-.61-.072-2.177-.433-2.751-.225-.36-.68-.715-1.132-.992a5.935 5.935 0 0 0-.764-.399c-.66-.282-2.74-.152-3.443 0C7.643.34 7.08.826 6.722 1.4c-.36.575-.519 2.298-.487 2.91.015.273.185.736.228 1.018.025.147.047.148.066.253a.213.213 0 0 0-.086-.015c-.294.018-.016 1.095.213 1.85.229.754.456.789.571.95.115.163.13.827.36 1.079.036.04.091.098.16.168l.043.528.077.294c-.035-.084-.104-.139-.137-.028l-.296.865a.06.06 0 0 0-.044-.024c-.096-.081-.224-.011-.34.176-.173.278-.746.678-1.41.967l-.009.035-.01.034-.003.014a3.682 3.682 0 0 1-.158.064l-3.5 1.351c-.749.29-1.377.31-1.38 1.173L0 18h21z"/></g></g></svg>