<svg xmlns="http://www.w3.org/2000/svg" width="48" height="46" viewBox="0 0 24 23"><g><g><g><path fill="#fb0" d="M12.5 19a7.5 7.5 0 1 0 0-15 7.5 7.5 0 0 0 0 15z"/></g><g><path fill="#333" d="M15.902 12.286H.782a.783.783 0 0 1 0-1.566h15.12a.783.783 0 0 1 0 1.566z"/></g><g><path fill="#333" d="M11.732 16.46a.784.784 0 0 1-.553-1.337l3.619-3.623-3.619-3.623a.784.784 0 0 1 1.107-1.108l4.17 4.176a.784.784 0 0 1 0 1.108l-4.17 4.176a.776.776 0 0 1-.554.23z"/></g><g><path fill="#fb0" d="M12.51 22.988c-4.745 0-8.935-2.859-10.675-7.283a.783.783 0 0 1 1.455-.572 9.857 9.857 0 0 0 9.22 6.289c5.462 0 9.907-4.45 9.907-9.918 0-5.468-4.445-9.918-9.906-9.918a9.857 9.857 0 0 0-9.22 6.289.783.783 0 0 1-1.456-.572C3.575 2.878 7.765.02 12.51.02c6.324 0 11.47 5.152 11.47 11.484 0 6.331-5.146 11.484-11.47 11.484z"/></g></g></g></svg>