<svg xmlns="http://www.w3.org/2000/svg" width="44" height="44" viewBox="0 0 22 22"><g><g><g><g><path fill="#fb0" d="M7.098 11.315c.012-.517-.266-.99-.704-1.202a1.13 1.13 0 0 0-1.303.232l-2.007 2.039a1.35 1.35 0 0 0-.05 1.811 1.134 1.134 0 0 0 1.685.053l2.007-2.038c.23-.233.364-.555.372-.895z"/></g><g><path fill="#fb0" d="M16.244.423c-1.572-.052-3.097.573-4.238 1.736L7.99 6.236a.914.914 0 0 0-.25.601c-.022.93 1.498 1.658 2.457.682l2.882-2.924c.223-.227.52-.35.828-.34.307.01.598.15.809.39l5.693 6.49c3.423-3.95.974-10.55-4.166-10.712z"/></g><g><path fill="#fb0" d="M11.428 16.245c.012-.517-.266-.99-.704-1.202a1.13 1.13 0 0 0-1.303.232l-2.007 2.039c-.31.314-.44.782-.342 1.227.098.446.41.801.818.932.408.132.85.019 1.16-.295l2.006-2.038c.23-.233.364-.556.372-.895z"/></g><g><path fill="#fb0" d="M20.124 12.014c-.039-.029.081.095-5.972-6.804a.374.374 0 0 0-.27-.13.371.371 0 0 0-.276.113l-2.881 2.924c-.454.462-1.06.711-1.685.691a2.282 2.282 0 0 1-1.645-.795 1.758 1.758 0 0 1-.43-1.207c.013-.447.19-.871.492-1.178l3.161-3.21C9.17.745 7 .036 4.931.557 2.863 1.08 1.213 2.755.606 4.945 0 7.134.531 9.505 1.997 11.159l.547.622c.034-.041.004-.004 2.014-2.045.616-.625 1.537-.753 2.282-.318.744.436 1.144 1.337.99 2.234.62-.088 1.241.149 1.67.637a2.2 2.2 0 0 1 .496 1.83 1.87 1.87 0 0 1 1.67.64c.428.488.613 1.169.495 1.829a1.86 1.86 0 0 1 1.638.603c.428.466.628 1.122.539 1.77.511.32 1.163.187 1.53-.312a1.353 1.353 0 0 0-.067-1.674l-5.143-5.86a.438.438 0 0 1-.089-.404.4.4 0 0 1 .28-.285.369.369 0 0 1 .37.12l5.143 5.861c.293.333.728.473 1.142.367.414-.106.745-.441.867-.88a1.352 1.352 0 0 0-.276-1.247l-5.143-5.86a.438.438 0 0 1 .02-.584.367.367 0 0 1 .542.014l5.143 5.86c.332.378.842.502 1.292.317.45-.185.753-.643.767-1.162a1.646 1.646 0 0 0-.592-1.218z"/></g><g><path fill="#fb0" d="M12.443 17.4a1.138 1.138 0 0 0-.852.35l-2.007 2.038c-.31.314-.44.782-.342 1.228.098.445.41.8.818.932.408.131.85.018 1.16-.296l2.007-2.038c.348-.357.464-.904.293-1.387-.171-.484-.596-.81-1.077-.826z"/></g><g><path fill="#fb0" d="M9.269 13.785c.012-.517-.266-.99-.704-1.202a1.13 1.13 0 0 0-1.303.232l-2.007 2.039a1.351 1.351 0 0 0-.04 1.802 1.134 1.134 0 0 0 1.676.062l2.007-2.038c.23-.233.363-.556.37-.895z"/></g></g></g></g></svg>