<svg xmlns="http://www.w3.org/2000/svg" width="48" height="38" viewBox="0 0 24 19"><g><g><g><path fill="#333" d="M2.29 2.25h2.289v2.22h-2.29zM1 5.72h4.868V1H1z"/><path fill="none" stroke="#fff" stroke-miterlimit="20" stroke-width=".5" d="M2.29 2.25h2.289v2.22h-2.29zM1 5.72h4.868V1H1z"/></g><g><path fill="#333" d="M21.716 4.47H8.709V2.25h13.007zM7.42 1v4.72h15.585V1z"/><path fill="none" stroke="#fff" stroke-miterlimit="20" stroke-width=".5" d="M21.716 4.47H8.709V2.25h13.007zM7.42 1v4.72h15.585V1z"/></g><g><path fill="#333" d="M2.29 8.38h2.289v2.22h-2.29zM1 11.85h4.868V7.13H1z"/><path fill="none" stroke="#fff" stroke-miterlimit="20" stroke-width=".5" d="M2.29 8.38h2.289v2.22h-2.29zM1 11.85h4.868V7.13H1z"/></g><g><path fill="#333" d="M8.71 8.38h13.006v2.22H8.709zm-1.29 3.47h15.585V7.13H7.42z"/><path fill="none" stroke="#fff" stroke-miterlimit="20" stroke-width=".5" d="M8.71 8.38h13.006v2.22H8.709zm-1.29 3.47h15.585V7.13H7.42z"/></g><g><path fill="#333" d="M2.29 14.5h2.289v2.22h-2.29zM1 17.97h4.868v-4.72H1z"/><path fill="none" stroke="#fff" stroke-miterlimit="20" stroke-width=".5" d="M2.29 14.5h2.289v2.22h-2.29zM1 17.97h4.868v-4.72H1z"/></g><g><path fill="#333" d="M8.71 14.5h13.006v2.22H8.709zm-1.29 3.47h15.585v-4.72H7.42z"/><path fill="none" stroke="#fff" stroke-miterlimit="20" stroke-width=".5" d="M8.71 14.5h13.006v2.22H8.709zm-1.29 3.47h15.585v-4.72H7.42z"/></g></g></g></svg>