<svg xmlns="http://www.w3.org/2000/svg" width="14" height="19" viewBox="0 0 14 19"><g><g opacity=".7"><g opacity=".7"><path fill="#fff" d="M7.002 14.26a.56.56 0 0 0 .561-.557v-2.306a.559.559 0 0 0-.561-.557.56.56 0 0 0-.562.557v2.306a.56.56 0 0 0 .561.556z"/></g><g opacity=".7"><path fill="#fff" d="M12.87 13.781c0 2.264-1.857 4.106-4.14 4.106H5.263c-2.283 0-4.141-1.842-4.141-4.106V7.22h11.748zM4.343 3.4c0-1.26 1.19-2.286 2.655-2.286 1.464 0 2.655 1.025 2.655 2.286v2.717h-5.31zm9.09 2.707h-2.657V3.394C10.775 1.522 9.08 0 6.997 0S3.219 1.522 3.219 3.394v2.712H.561A.56.56 0 0 0 0 6.662v7.12C0 16.658 2.362 19 5.264 19H8.73c2.903 0 5.265-2.341 5.265-5.219V6.662a.56.56 0 0 0-.562-.556z"/></g></g></g></svg>