<svg xmlns="http://www.w3.org/2000/svg" width="14" height="20" viewBox="0 0 14 20"><g><g><g><path fill="#333" d="M9.758 14.45a52.922 52.922 0 0 1-2.766 3.771 52.873 52.873 0 0 1-2.76-3.762c-2.04-3.073-3.117-5.539-3.117-7.13 0-3.396 2.636-6.16 5.877-6.16 3.24 0 5.877 2.764 5.877 6.16 0 1.59-1.076 4.052-3.111 7.12zM6.987 0C3.134 0 0 3.288 0 7.33c0 1.857 1.115 4.48 3.315 7.797a52.009 52.009 0 0 0 3.255 4.38l.417.493.417-.493a52.084 52.084 0 0 0 3.255-4.38c2.2-3.317 3.315-5.94 3.315-7.797 0-4.042-3.135-7.33-6.987-7.33z"/></g><g><path fill="#333" d="M6.997 9.085c-1.286 0-2.332-1.018-2.332-2.268 0-1.25 1.046-2.268 2.332-2.268 1.285 0 2.332 1.017 2.332 2.268 0 1.25-1.047 2.268-2.332 2.268zm0-5.445c-1.802 0-3.267 1.427-3.267 3.182 0 1.754 1.465 3.182 3.267 3.182 1.801 0 3.266-1.428 3.266-3.182 0-1.755-1.465-3.182-3.266-3.182z"/></g></g></g></svg>