<svg xmlns="http://www.w3.org/2000/svg" width="10" height="16" viewBox="0 0 10 16"><g><g transform="rotate(-90 5 2.5)"><path fill="#3588c0" d="M3.45 5.928A.267.267 0 0 1 3.265 6a.267.267 0 0 1-.187-.072.237.237 0 0 1 0-.35L6.362 2.5 3.077-.578a.237.237 0 0 1 0-.35.277.277 0 0 1 .374 0l3.472 3.253a.237.237 0 0 1 0 .35L3.45 5.928z"/><path fill="none" stroke="#3588c0" stroke-miterlimit="20" stroke-width=".64" d="M3.45 5.928A.267.267 0 0 1 3.265 6a.267.267 0 0 1-.187-.072.237.237 0 0 1 0-.35L6.362 2.5v0L3.077-.578a.237.237 0 0 1 0-.35.277.277 0 0 1 .374 0l3.472 3.253a.237.237 0 0 1 0 .35L3.45 5.928v0z"/></g><g transform="rotate(90 5 13.5)"><path fill="#3588c0" d="M3.45 10.072A.267.267 0 0 0 3.265 10a.267.267 0 0 0-.187.072.237.237 0 0 0 0 .35L6.362 13.5l-3.285 3.078a.237.237 0 0 0 0 .35c.103.096.27.096.374 0l3.472-3.253a.237.237 0 0 0 0-.35L3.45 10.072z"/><path fill="none" stroke="#3588c0" stroke-miterlimit="20" stroke-width=".64" d="M3.45 10.072A.267.267 0 0 0 3.265 10a.267.267 0 0 0-.187.072.237.237 0 0 0 0 .35L6.362 13.5v0l-3.285 3.078a.237.237 0 0 0 0 .35c.103.096.27.096.374 0l3.472-3.253a.237.237 0 0 0 0-.35L3.45 10.072v0z"/></g></g></svg>