<svg xmlns="http://www.w3.org/2000/svg" width="44" height="44" viewBox="0 0 22 22"><g><g><g><path fill="#fb0" d="M11 22c6.075 0 11-4.925 11-11S17.075 0 11 0 0 4.925 0 11s4.925 11 11 11z"/></g><g><g><path fill="#333" d="M15.61 10.61h-4.22V6.39a.39.39 0 1 0-.78 0v4.22H6.39a.39.39 0 1 0 0 .78h4.22v4.22a.39.39 0 1 0 .78 0v-4.22h4.22a.39.39 0 0 0 0-.78z"/><path fill="none" stroke="#333" stroke-miterlimit="20" stroke-width=".9" d="M15.61 10.61h-4.22v0-4.22a.39.39 0 1 0-.78 0v4.22H6.39a.39.39 0 1 0 0 .78h4.22v4.22a.39.39 0 1 0 .78 0v-4.22 0h4.22a.39.39 0 0 0 0-.78z"/></g></g></g></g></svg>